<svg xmlns="http://www.w3.org/2000/svg" xmlns:xlink="http://www.w3.org/1999/xlink" width="1080" zoomAndPan="magnify" viewBox="0 0 810 809.999993" height="1080" preserveAspectRatio="xMidYMid meet" version="1.0"><defs><clipPath id="9ae5922cd0"><path d="M 271 305 L 408 305 L 408 567 L 271 567 Z M 271 305 " clip-rule="nonzero"/></clipPath></defs><path fill="#ffffff" d="M 459.207031 411.265625 L 458.566406 409.535156 L 460.859375 408.6875 L 461.5 410.417969 L 463.789062 409.570312 L 463.148438 407.839844 L 465.4375 406.992188 L 466.078125 408.722656 L 468.367188 407.875 L 467.726562 406.144531 L 470.015625 405.296875 L 470.65625 407.027344 L 472.945312 406.179688 L 472.304688 404.449219 L 474.597656 403.601562 L 475.238281 405.332031 L 477.527344 404.484375 L 476.886719 402.753906 L 479.175781 401.90625 L 479.816406 403.636719 L 482.109375 402.789062 L 481.464844 401.058594 L 483.753906 400.210938 L 484.394531 401.941406 L 486.6875 401.09375 L 486.046875 399.359375 L 488.335938 398.511719 L 488.976562 400.242188 L 491.265625 399.394531 L 490.625 397.664062 L 492.914062 396.816406 L 493.558594 398.546875 L 495.847656 397.699219 L 495.207031 395.96875 L 497.496094 395.121094 L 498.132812 396.851562 L 500.425781 396.003906 L 499.785156 394.273438 L 502.074219 393.425781 L 502.714844 395.15625 L 505.003906 394.308594 L 504.363281 392.578125 L 506.65625 391.730469 L 507.296875 393.460938 L 509.585938 392.613281 L 508.945312 390.882812 L 511.234375 390.035156 L 511.875 391.765625 L 514.164062 390.917969 L 513.523438 389.183594 L 515.8125 388.339844 L 516.453125 390.070312 L 518.746094 389.222656 L 518.105469 387.488281 L 520.394531 386.640625 L 521.035156 388.371094 L 523.324219 387.523438 L 522.683594 385.792969 L 524.972656 384.945312 L 525.613281 386.675781 L 527.90625 385.828125 L 527.261719 384.097656 L 529.554688 383.25 L 530.191406 384.980469 L 532.484375 384.132812 L 531.84375 382.402344 L 534.132812 381.554688 L 534.773438 383.285156 L 537.0625 382.4375 L 536.421875 380.707031 L 538.714844 379.859375 L 539.355469 381.589844 L 541.644531 380.742188 L 541.003906 379.011719 L 543.292969 378.164062 L 543.933594 379.894531 L 546.222656 379.046875 L 545.582031 377.316406 L 547.871094 376.464844 L 548.511719 378.195312 L 550.800781 377.351562 L 550.160156 375.617188 L 551.992188 374.941406 C 552.144531 374.882812 552.289062 374.8125 552.441406 374.75 L 553.15625 376.464844 C 554.023438 376.105469 554.851562 375.660156 555.625 375.140625 L 554.585938 373.597656 C 555.265625 373.136719 555.894531 372.617188 556.460938 372.042969 L 557.78125 373.347656 C 558.4375 372.683594 559.03125 371.949219 559.542969 371.167969 L 557.988281 370.148438 C 558.433594 369.46875 558.8125 368.746094 559.117188 367.988281 L 560.839844 368.683594 C 561.1875 367.8125 561.453125 366.90625 561.621094 365.988281 L 559.800781 365.652344 C 559.949219 364.855469 560.023438 364.046875 560.007812 363.222656 L 561.855469 363.195312 C 561.839844 362.265625 561.730469 361.328125 561.53125 360.410156 L 559.726562 360.804688 C 559.640625 360.414062 559.535156 360.023438 559.410156 359.636719 C 559.285156 359.242188 559.136719 358.859375 558.972656 358.484375 L 560.667969 357.75 C 560.292969 356.890625 559.832031 356.066406 559.292969 355.300781 L 557.777344 356.363281 C 557.304688 355.691406 556.769531 355.078125 556.183594 354.519531 L 557.457031 353.175781 C 556.78125 352.535156 556.039062 351.957031 555.246094 351.460938 L 554.257812 353.03125 C 553.570312 352.597656 552.839844 352.238281 552.078125 351.945312 L 552.738281 350.210938 C 551.863281 349.878906 550.953125 349.632812 550.03125 349.476562 L 549.726562 351.3125 C 548.929688 351.179688 548.117188 351.125 547.296875 351.15625 L 547.230469 349.296875 C 546.296875 349.332031 545.363281 349.457031 544.453125 349.675781 L 544.886719 351.484375 C 544.730469 351.519531 544.578125 351.542969 544.429688 351.585938 L 542.527344 352.117188 L 542.03125 350.339844 L 539.679688 350.992188 L 540.175781 352.773438 L 537.820312 353.425781 L 537.328125 351.648438 L 534.976562 352.304688 L 535.46875 354.082031 L 533.117188 354.738281 L 532.621094 352.957031 L 530.269531 353.613281 L 530.765625 355.390625 L 528.414062 356.046875 L 527.917969 354.269531 L 525.566406 354.925781 L 526.0625 356.703125 L 523.707031 357.359375 L 523.214844 355.578125 L 520.859375 356.234375 L 521.355469 358.011719 L 519.003906 358.667969 L 518.507812 356.890625 L 516.15625 357.546875 L 516.652344 359.324219 L 514.300781 359.976562 L 513.804688 358.199219 L 511.453125 358.855469 L 511.949219 360.632812 L 509.59375 361.289062 L 509.101562 359.511719 L 506.75 360.164062 L 507.242188 361.945312 L 504.890625 362.597656 L 504.398438 360.820312 L 502.042969 361.476562 L 502.539062 363.253906 L 500.1875 363.910156 L 499.691406 362.132812 L 497.339844 362.785156 L 497.832031 364.566406 L 495.480469 365.21875 L 494.988281 363.441406 L 492.636719 364.097656 L 493.128906 365.875 L 490.777344 366.53125 L 490.28125 364.753906 L 487.929688 365.40625 L 488.425781 367.1875 L 486.074219 367.839844 L 485.578125 366.0625 L 483.226562 366.71875 L 483.71875 368.496094 L 481.367188 369.152344 L 480.875 367.375 L 478.519531 368.027344 L 479.015625 369.804688 L 476.660156 370.460938 L 476.167969 368.683594 L 473.816406 369.339844 L 474.3125 371.117188 L 471.960938 371.769531 L 471.464844 369.992188 L 469.113281 370.648438 L 469.605469 372.425781 L 467.253906 373.082031 L 466.757812 371.304688 L 464.40625 371.957031 L 464.902344 373.738281 L 462.550781 374.390625 L 462.054688 372.613281 L 459.703125 373.269531 L 460.199219 375.046875 L 457.84375 375.703125 L 457.351562 373.925781 L 455 374.578125 L 455.492188 376.359375 L 453.140625 377.011719 L 452.644531 375.234375 L 450.292969 375.890625 L 450.789062 377.667969 L 448.4375 378.324219 L 447.941406 376.546875 L 446.25 377.015625 L 457.542969 411.882812 Z M 545.796875 358.921875 C 548.355469 358.089844 551.105469 359.496094 551.9375 362.058594 C 552.765625 364.621094 551.363281 367.371094 548.800781 368.199219 C 546.238281 369.027344 543.488281 367.625 542.65625 365.0625 C 541.828125 362.5 543.234375 359.75 545.796875 358.921875 Z M 545.796875 358.921875 " fill-opacity="1" fill-rule="nonzero"/><path fill="#ffffff" d="M 409.671875 374.054688 C 411.804688 375.246094 413.597656 377.003906 414.796875 379.167969 L 416.484375 382.222656 L 416.703125 382.617188 L 398.738281 391.15625 L 400.363281 394.578125 L 389.945312 399.496094 L 390.242188 400.414062 L 386.507812 402.804688 L 383.53125 404.714844 C 383.195312 404.257812 382.835938 403.8125 382.421875 403.398438 L 364.433594 385.289062 L 340.539062 393.695312 L 363.992188 417.308594 C 360.464844 419.945312 359.140625 424.621094 360.894531 428.726562 L 363.960938 435.925781 C 365.496094 439.535156 369.074219 441.757812 372.832031 441.757812 C 373.832031 441.757812 374.84375 441.601562 375.832031 441.273438 L 396.710938 434.3125 L 400.78125 432.957031 L 401.203125 434.253906 L 413.613281 430.234375 L 414.96875 434.109375 L 419.5 432.527344 L 418.183594 428.757812 L 421.535156 427.671875 L 422.824219 431.367188 L 427.359375 429.78125 L 426.105469 426.191406 L 429.457031 425.105469 L 430.683594 428.621094 L 435.21875 427.039062 L 434.027344 423.625 L 438.578125 422.152344 L 440.695312 425.976562 L 441.359375 427.183594 C 442.144531 428.597656 443.609375 429.398438 445.117188 429.398438 C 445.820312 429.398438 446.535156 429.222656 447.191406 428.859375 C 449.179688 427.761719 449.929688 425.320312 448.980469 423.292969 C 448.941406 423.207031 448.914062 423.117188 448.867188 423.03125 L 446.894531 419.460938 L 454.667969 416.941406 L 441.1875 375.304688 L 426.339844 382.3125 L 424.261719 378.554688 L 422.300781 375.015625 C 420.296875 371.386719 417.273438 368.453125 413.6875 366.484375 C 413.347656 368.253906 412.683594 369.96875 411.695312 371.539062 C 411.113281 372.464844 410.421875 373.296875 409.671875 374.054688 Z M 394.507812 427.511719 L 373.570312 434.488281 C 372.367188 434.890625 371.035156 434.292969 370.535156 433.121094 L 367.46875 425.925781 C 367 424.820312 367.390625 423.546875 368.40625 422.898438 L 369.832031 421.984375 C 371.257812 422.589844 372.78125 422.898438 374.308594 422.898438 C 377.222656 422.898438 380.136719 421.792969 382.367188 419.578125 C 384.535156 417.425781 385.648438 414.621094 385.730469 411.792969 L 388.785156 409.835938 L 392.519531 407.445312 L 398.578125 426.152344 Z M 412.703125 420.296875 C 411.15625 420.851562 409.433594 420.039062 408.882812 418.488281 L 403.578125 403.664062 C 403.027344 402.117188 403.839844 400.394531 405.386719 399.84375 C 406.9375 399.289062 408.660156 400.101562 409.210938 401.652344 L 414.515625 416.472656 C 415.066406 418.023438 414.253906 419.742188 412.703125 420.296875 Z M 422.042969 416.957031 C 420.492188 417.511719 418.773438 416.699219 418.21875 415.148438 L 412.917969 400.324219 C 412.363281 398.777344 413.179688 397.054688 414.726562 396.5 C 416.277344 395.949219 417.996094 396.761719 418.550781 398.3125 L 423.851562 413.132812 C 424.40625 414.683594 423.59375 416.402344 422.042969 416.957031 Z M 422.042969 416.957031 " fill-opacity="1" fill-rule="nonzero"/><path fill="#ffffff" d="M 256.035156 562.40625 C 259.445312 565.449219 263.695312 566.949219 267.933594 566.949219 C 272.847656 566.949219 277.742188 564.929688 281.273438 560.976562 L 335.742188 499.960938 C 339.859375 495.347656 341.300781 488.9375 339.554688 483.007812 L 338.519531 479.496094 L 289.246094 438.726562 L 302.453125 483.570312 L 254.605469 537.167969 C 248.03125 544.53125 248.671875 555.832031 256.035156 562.40625 Z M 256.035156 562.40625 " fill-opacity="1" fill-rule="nonzero"/><g clip-path="url(#9ae5922cd0)"><path fill="#ffffff" d="M 331.160156 319.171875 C 328.816406 312.707031 324.410156 307.636719 318.273438 306.109375 C 306.066406 303.066406 288.371094 309.695312 281.167969 330.632812 C 271.4375 359.476562 269.347656 378.257812 273.046875 410.023438 C 274.386719 416.921875 276.746094 421.953125 279.742188 425.632812 C 280.679688 427.023438 281.820312 428.316406 283.179688 429.441406 L 348.996094 483.894531 L 373.183594 554.894531 C 375.714844 562.328125 382.660156 567.011719 390.101562 567.011719 C 392.011719 567.011719 393.957031 566.699219 395.863281 566.050781 C 405.210938 562.867188 410.203125 552.710938 407.019531 543.367188 L 381.203125 467.578125 C 380.136719 464.449219 378.226562 461.679688 375.679688 459.570312 L 324.304688 417.066406 C 324.285156 416.011719 324.242188 414.898438 324.171875 413.71875 C 323.226562 406.679688 323.140625 399.304688 323.566406 391.890625 C 322.160156 390.6875 320.957031 389.226562 320.0625 387.523438 L 294.808594 339.28125 C 291.042969 332.085938 293.832031 323.167969 301.027344 319.402344 C 303.128906 318.300781 305.488281 317.71875 307.847656 317.71875 C 313.351562 317.71875 318.355469 320.746094 320.90625 325.617188 L 340.25 362.570312 L 343.003906 361.601562 L 335.984375 336.242188 L 331.625 320.496094 C 331.496094 320.039062 331.335938 319.601562 331.160156 319.171875 Z M 331.160156 319.171875 " fill-opacity="1" fill-rule="nonzero"/></g><path fill="#ffffff" d="M 333.113281 392.132812 C 334.378906 392.132812 335.660156 391.921875 336.910156 391.484375 L 391.4375 372.300781 L 393.136719 373.371094 C 398.484375 376.738281 405.546875 375.132812 408.914062 369.785156 C 412.28125 364.441406 410.675781 357.375 405.328125 354.011719 L 398.953125 349.996094 C 395.996094 348.132812 392.351562 347.726562 389.0625 348.882812 L 338.65625 366.617188 L 317.992188 327.144531 C 315.0625 321.546875 308.148438 319.382812 302.550781 322.3125 C 296.953125 325.246094 294.792969 332.15625 297.722656 337.753906 L 322.976562 386 C 325 389.859375 328.960938 392.132812 333.113281 392.132812 Z M 333.113281 392.132812 " fill-opacity="1" fill-rule="nonzero"/><path fill="#ffffff" d="M 314.539062 269.316406 C 309.851562 286.457031 319.945312 304.152344 337.085938 308.835938 C 351.703125 312.835938 366.710938 306.078125 373.726562 293.378906 C 371.980469 292.550781 370.210938 291.644531 368.429688 290.652344 C 362.210938 287.191406 356.898438 283.300781 353.003906 279.582031 C 352.929688 280.167969 352.824219 280.753906 352.664062 281.339844 C 350.765625 288.289062 343.589844 292.382812 336.636719 290.484375 C 329.6875 288.582031 325.59375 281.40625 327.492188 274.453125 C 328.996094 268.953125 333.8125 265.253906 339.199219 264.886719 C 340.570312 260.832031 344.285156 251.828125 351.585938 246.207031 C 335.25 243.082031 319 253 314.539062 269.316406 Z M 314.539062 269.316406 " fill-opacity="1" fill-rule="nonzero"/><path fill="#ffffff" d="M 346.25 266.410156 C 346.308594 266.441406 346.359375 266.472656 346.417969 266.503906 C 346.058594 271.894531 356.953125 280.238281 371.914062 285.765625 C 382.851562 289.804688 393.117188 291.289062 399.109375 290.105469 C 401.84375 289.566406 403.691406 288.46875 404.304688 286.804688 C 406.265625 281.496094 394.945312 272.421875 379.015625 266.539062 C 377.726562 266.058594 376.449219 265.632812 375.179688 265.226562 C 372.328125 258.523438 367.234375 252.839844 360.5625 249.335938 C 352.308594 252.1875 347.898438 261.886719 346.25 266.410156 Z M 346.25 266.410156 " fill-opacity="1" fill-rule="nonzero"/><path fill="#ffffff" d="M 342.183594 270.203125 C 337.933594 269.042969 333.550781 271.546875 332.386719 275.792969 C 331.226562 280.039062 333.726562 284.425781 337.976562 285.589844 C 342.222656 286.75 346.609375 284.246094 347.769531 280 C 348.933594 275.753906 346.429688 271.367188 342.183594 270.203125 Z M 342.183594 270.203125 " fill-opacity="1" fill-rule="nonzero"/></svg>