<svg xmlns="http://www.w3.org/2000/svg" xmlns:xlink="http://www.w3.org/1999/xlink" width="1080" zoomAndPan="magnify" viewBox="0 0 810 809.999993" height="1080" preserveAspectRatio="xMidYMid meet" version="1.0"><path fill="#ffffff" d="M 432.742188 271.769531 C 432.742188 272.6875 432.695312 273.605469 432.605469 274.523438 C 432.515625 275.4375 432.382812 276.347656 432.203125 277.25 C 432.023438 278.152344 431.800781 279.042969 431.53125 279.921875 C 431.265625 280.800781 430.957031 281.667969 430.605469 282.515625 C 430.253906 283.367188 429.859375 284.199219 429.425781 285.007812 C 428.992188 285.820312 428.519531 286.609375 428.007812 287.371094 C 427.496094 288.136719 426.949219 288.875 426.367188 289.585938 C 425.785156 290.296875 425.167969 290.976562 424.515625 291.628906 C 423.867188 292.277344 423.183594 292.894531 422.472656 293.480469 C 421.761719 294.0625 421.023438 294.609375 420.261719 295.121094 C 419.496094 295.632812 418.707031 296.105469 417.894531 296.539062 C 417.085938 296.972656 416.253906 297.363281 415.40625 297.714844 C 414.554688 298.066406 413.691406 298.378906 412.808594 298.644531 C 411.929688 298.910156 411.039062 299.136719 410.136719 299.316406 C 409.234375 299.492188 408.324219 299.628906 407.410156 299.71875 C 406.496094 299.808594 405.578125 299.855469 404.65625 299.855469 C 403.738281 299.855469 402.820312 299.808594 401.90625 299.71875 C 400.988281 299.628906 400.082031 299.492188 399.179688 299.316406 C 398.277344 299.136719 397.386719 298.910156 396.503906 298.644531 C 395.625 298.378906 394.757812 298.066406 393.910156 297.714844 C 393.058594 297.363281 392.230469 296.972656 391.417969 296.539062 C 390.605469 296.105469 389.820312 295.632812 389.054688 295.121094 C 388.289062 294.609375 387.550781 294.0625 386.839844 293.480469 C 386.128906 292.894531 385.449219 292.277344 384.796875 291.628906 C 384.148438 290.976562 383.53125 290.296875 382.949219 289.585938 C 382.363281 288.875 381.816406 288.136719 381.304688 287.371094 C 380.796875 286.609375 380.324219 285.820312 379.890625 285.007812 C 379.457031 284.199219 379.0625 283.367188 378.710938 282.515625 C 378.359375 281.667969 378.050781 280.800781 377.78125 279.921875 C 377.515625 279.042969 377.292969 278.152344 377.113281 277.25 C 376.933594 276.347656 376.796875 275.4375 376.707031 274.523438 C 376.617188 273.605469 376.574219 272.6875 376.574219 271.769531 C 376.574219 270.851562 376.617188 269.933594 376.707031 269.015625 C 376.796875 268.101562 376.933594 267.191406 377.113281 266.289062 C 377.292969 265.386719 377.515625 264.496094 377.78125 263.617188 C 378.050781 262.738281 378.359375 261.871094 378.710938 261.023438 C 379.0625 260.171875 379.457031 259.339844 379.890625 258.53125 C 380.324219 257.71875 380.796875 256.929688 381.304688 256.167969 C 381.816406 255.402344 382.363281 254.664062 382.949219 253.953125 C 383.53125 253.242188 384.148438 252.5625 384.796875 251.910156 C 385.449219 251.261719 386.128906 250.644531 386.839844 250.058594 C 387.550781 249.476562 388.289062 248.929688 389.054688 248.417969 C 389.820312 247.90625 390.605469 247.433594 391.417969 247 C 392.230469 246.566406 393.058594 246.175781 393.910156 245.824219 C 394.757812 245.472656 395.625 245.160156 396.503906 244.894531 C 397.386719 244.628906 398.277344 244.402344 399.179688 244.226562 C 400.082031 244.046875 400.988281 243.910156 401.90625 243.820312 C 402.820312 243.730469 403.738281 243.683594 404.65625 243.683594 C 405.578125 243.683594 406.496094 243.730469 407.410156 243.820312 C 408.324219 243.910156 409.234375 244.046875 410.136719 244.226562 C 411.039062 244.402344 411.929688 244.628906 412.808594 244.894531 C 413.691406 245.160156 414.554688 245.472656 415.40625 245.824219 C 416.253906 246.175781 417.085938 246.566406 417.894531 247 C 418.707031 247.433594 419.496094 247.90625 420.261719 248.417969 C 421.023438 248.929688 421.761719 249.476562 422.472656 250.058594 C 423.183594 250.644531 423.867188 251.261719 424.515625 251.910156 C 425.167969 252.5625 425.785156 253.242188 426.367188 253.953125 C 426.949219 254.664062 427.496094 255.402344 428.007812 256.167969 C 428.519531 256.929688 428.992188 257.71875 429.425781 258.53125 C 429.859375 259.339844 430.253906 260.171875 430.605469 261.023438 C 430.957031 261.871094 431.265625 262.738281 431.53125 263.617188 C 431.800781 264.496094 432.023438 265.386719 432.203125 266.289062 C 432.382812 267.191406 432.515625 268.101562 432.605469 269.015625 C 432.695312 269.933594 432.742188 270.851562 432.742188 271.769531 Z M 432.742188 271.769531 " fill-opacity="1" fill-rule="nonzero"/><path fill="#ffffff" d="M 364.929688 403.972656 L 364.929688 548.503906 C 364.929688 558.09375 372.464844 566.316406 382.738281 566.316406 C 392.328125 566.316406 400.546875 558.09375 400.546875 548.503906 L 400.546875 403.972656 Z M 364.929688 403.972656 " fill-opacity="1" fill-rule="nonzero"/><path fill="#ffffff" d="M 409.453125 403.972656 L 409.453125 548.503906 C 409.453125 558.09375 416.988281 566.316406 427.261719 566.316406 C 436.851562 566.316406 445.070312 558.09375 445.070312 548.503906 L 445.070312 403.972656 Z M 409.453125 403.972656 " fill-opacity="1" fill-rule="nonzero"/><path fill="#ffffff" d="M 282.730469 412.878906 C 275.878906 412.878906 270.398438 408.082031 269.03125 401.234375 C 267.660156 393.699219 273.140625 386.847656 280.675781 385.476562 C 356.023438 373.832031 353.285156 320.402344 352.597656 318.347656 C 351.914062 310.8125 357.394531 303.964844 364.929688 303.964844 C 372.464844 303.277344 378.628906 309.445312 379.3125 316.980469 C 379.3125 317.664062 383.421875 397.808594 284.097656 413.5625 C 284.097656 412.878906 283.414062 412.878906 282.730469 412.878906 Z M 282.730469 412.878906 " fill-opacity="1" fill-rule="nonzero"/><path fill="#ffffff" d="M 527.957031 412.878906 C 534.804688 412.878906 540.285156 408.082031 541.65625 401.234375 C 543.023438 393.699219 537.546875 386.847656 530.011719 385.476562 C 454.660156 373.832031 457.402344 320.402344 458.085938 318.347656 C 458.773438 310.8125 453.292969 303.964844 445.757812 303.964844 C 438.222656 303.277344 432.058594 309.445312 431.371094 316.980469 C 431.371094 317.664062 427.261719 397.808594 526.585938 413.5625 C 526.585938 412.878906 527.269531 412.878906 527.957031 412.878906 Z M 527.957031 412.878906 " fill-opacity="1" fill-rule="nonzero"/><path fill="#ffffff" d="M 427.945312 303.964844 C 421.78125 308.757812 413.5625 311.5 404.65625 311.5 C 395.753906 311.5 388.21875 308.757812 381.367188 303.964844 L 364.929688 303.964844 L 364.929688 421.78125 L 444.386719 421.78125 L 444.386719 303.964844 Z M 427.945312 303.964844 " fill-opacity="1" fill-rule="nonzero"/><path fill="#ffffff" d="M 525.902344 348.488281 C 525.902344 348.488281 540.96875 347.804688 538.914062 358.078125 C 530.011719 363.558594 525.902344 348.488281 525.902344 348.488281 Z M 525.902344 348.488281 " fill-opacity="1" fill-rule="nonzero"/><path fill="#ffffff" d="M 547.136719 337.527344 C 547.136719 337.527344 533.433594 343.007812 538.914062 351.226562 C 549.191406 352.597656 547.136719 337.527344 547.136719 337.527344 Z M 547.136719 337.527344 " fill-opacity="1" fill-rule="nonzero"/><path fill="#ffffff" d="M 539.601562 369.722656 C 538.914062 353.285156 536.859375 343.007812 534.121094 337.527344 C 534.804688 337.527344 535.492188 337.527344 536.175781 337.527344 C 536.859375 337.527344 536.859375 336.84375 536.859375 336.84375 C 538.914062 343.007812 541.65625 352.597656 542.339844 369.722656 Z M 539.601562 369.722656 " fill-opacity="1" fill-rule="nonzero"/><path fill="#ffffff" d="M 517.679688 319.035156 C 518.367188 319.035156 519.734375 319.035156 520.421875 319.035156 C 519.050781 318.347656 518.367188 318.347656 517.679688 317.664062 C 515.625 316.292969 514.941406 312.867188 516.3125 310.8125 C 517.679688 308.757812 521.105469 308.074219 523.160156 309.445312 C 523.84375 310.128906 524.53125 310.8125 525.214844 311.5 C 524.53125 310.8125 524.53125 309.445312 524.53125 308.757812 C 523.84375 305.335938 525.902344 302.59375 528.640625 301.910156 C 531.378906 301.222656 534.121094 303.277344 534.804688 306.019531 C 534.804688 306.703125 534.804688 308.074219 534.804688 308.757812 C 534.804688 308.074219 535.492188 306.703125 535.492188 306.019531 C 536.859375 303.964844 540.285156 303.277344 542.339844 304.648438 C 544.394531 306.019531 545.082031 309.445312 543.710938 311.5 C 543.023438 312.183594 542.339844 312.867188 541.65625 313.554688 C 542.339844 312.867188 543.710938 312.867188 544.394531 312.867188 C 547.136719 312.183594 549.875 314.238281 550.558594 316.980469 C 551.246094 319.71875 549.191406 322.457031 546.449219 323.144531 C 545.765625 323.144531 544.394531 323.144531 543.710938 323.144531 C 545.082031 323.828125 545.765625 323.828125 546.449219 324.515625 C 548.503906 325.882812 549.191406 329.308594 547.820312 331.363281 C 546.449219 333.417969 543.023438 334.105469 540.96875 332.734375 C 540.285156 332.046875 539.601562 331.363281 538.914062 330.679688 C 539.601562 331.363281 539.601562 332.734375 539.601562 333.417969 C 540.285156 336.160156 538.230469 338.898438 535.492188 339.582031 C 532.75 340.269531 530.011719 338.214844 529.324219 335.472656 C 529.324219 334.789062 529.324219 333.417969 529.324219 332.734375 C 528.640625 334.105469 528.640625 334.789062 527.957031 335.472656 C 526.585938 337.527344 523.160156 338.214844 521.105469 336.84375 C 519.050781 335.472656 518.367188 332.046875 519.734375 329.992188 C 520.421875 329.308594 521.105469 328.625 521.789062 327.9375 C 521.105469 328.625 519.734375 328.625 519.050781 328.625 C 516.3125 329.308594 513.570312 327.253906 512.886719 324.515625 C 512.886719 322.457031 514.253906 319.71875 517.679688 319.035156 Z M 517.679688 319.035156 " fill-opacity="1" fill-rule="nonzero"/><path fill="#ffffff" d="M 560.148438 410.136719 L 516.996094 410.136719 C 512.886719 410.136719 509.460938 406.027344 510.832031 401.917969 L 519.734375 365.613281 L 557.410156 365.613281 L 566.316406 401.917969 C 567 406.027344 564.261719 410.136719 560.148438 410.136719 Z M 560.148438 410.136719 " fill-opacity="1" fill-rule="nonzero"/><path fill="#ffffff" d="M 259.441406 348.488281 C 259.441406 348.488281 274.507812 347.804688 272.453125 358.078125 C 264.234375 363.558594 259.441406 348.488281 259.441406 348.488281 Z M 259.441406 348.488281 " fill-opacity="1" fill-rule="nonzero"/><path fill="#ffffff" d="M 281.359375 337.527344 C 281.359375 337.527344 267.660156 343.007812 273.140625 351.226562 C 283.414062 352.597656 281.359375 337.527344 281.359375 337.527344 Z M 281.359375 337.527344 " fill-opacity="1" fill-rule="nonzero"/><path fill="#ffffff" d="M 273.140625 369.722656 C 273.140625 352.597656 270.398438 343.007812 268.34375 337.527344 C 269.03125 337.527344 269.714844 337.527344 270.398438 337.527344 C 271.085938 337.527344 271.085938 336.84375 271.085938 336.84375 C 273.140625 343.007812 275.878906 352.597656 276.566406 369.722656 Z M 273.140625 369.722656 " fill-opacity="1" fill-rule="nonzero"/><path fill="#ffffff" d="M 251.21875 319.035156 C 251.90625 319.035156 253.273438 319.035156 253.960938 319.035156 C 252.589844 318.347656 251.90625 318.347656 251.21875 317.664062 C 249.164062 316.292969 248.480469 312.867188 249.851562 310.8125 C 251.90625 308.074219 254.644531 307.390625 257.386719 308.757812 C 258.070312 309.445312 258.753906 310.128906 259.441406 310.8125 C 258.753906 310.128906 258.753906 308.757812 258.753906 308.074219 C 258.070312 305.335938 259.441406 302.59375 262.179688 301.910156 C 264.917969 301.222656 267.660156 303.277344 268.34375 306.019531 C 268.34375 306.703125 268.34375 308.074219 268.34375 308.757812 C 269.03125 307.390625 269.03125 306.703125 269.714844 306.019531 C 271.085938 303.964844 274.507812 303.277344 276.566406 304.648438 C 278.621094 306.019531 279.304688 309.445312 277.933594 311.5 C 277.25 312.183594 276.566406 312.867188 275.878906 313.554688 C 276.566406 312.867188 277.933594 312.867188 278.621094 312.867188 C 281.359375 312.183594 284.097656 314.238281 284.785156 316.980469 C 285.46875 319.71875 283.414062 322.457031 280.675781 323.144531 C 279.988281 323.144531 278.621094 323.144531 277.933594 323.144531 C 279.304688 323.828125 279.988281 323.828125 280.675781 324.515625 C 282.730469 325.882812 283.414062 329.308594 282.042969 331.363281 C 280.675781 333.417969 277.25 334.105469 275.195312 332.734375 C 274.507812 332.046875 273.824219 331.363281 273.140625 330.679688 C 273.824219 331.363281 273.824219 332.734375 273.824219 333.417969 C 274.507812 336.160156 272.453125 338.898438 269.714844 339.582031 C 266.976562 340.269531 264.234375 338.214844 263.550781 335.472656 C 263.550781 334.789062 263.550781 333.417969 263.550781 332.734375 C 262.863281 334.105469 262.863281 334.789062 262.179688 335.472656 C 260.808594 337.527344 257.382812 338.214844 255.328125 336.84375 C 253.273438 335.472656 252.589844 332.046875 253.960938 329.992188 C 254.644531 329.308594 255.328125 328.625 256.015625 327.9375 C 255.328125 328.625 253.960938 328.625 253.273438 328.625 C 250.535156 329.308594 247.792969 327.253906 247.109375 324.515625 C 247.109375 322.457031 248.480469 319.71875 251.21875 319.035156 Z M 251.21875 319.035156 " fill-opacity="1" fill-rule="nonzero"/><path fill="#ffffff" d="M 293.6875 410.136719 L 250.535156 410.136719 C 246.425781 410.136719 243 406.027344 244.371094 401.917969 L 253.273438 365.613281 L 290.949219 365.613281 L 299.855469 401.917969 C 301.222656 406.027344 297.800781 410.136719 293.6875 410.136719 Z M 293.6875 410.136719 " fill-opacity="1" fill-rule="nonzero"/></svg>