<svg xmlns="http://www.w3.org/2000/svg" xmlns:xlink="http://www.w3.org/1999/xlink" width="1080" zoomAndPan="magnify" viewBox="0 0 810 809.999993" height="1080" preserveAspectRatio="xMidYMid meet" version="1.0"><defs><clipPath id="cedd47ec49"><path d="M 436 335 L 567 335 L 567 518 L 436 518 Z M 436 335 " clip-rule="nonzero"/></clipPath><clipPath id="cb42c42a05"><path d="M 243 399 L 436 399 L 436 518.769531 L 243 518.769531 Z M 243 399 " clip-rule="nonzero"/></clipPath></defs><path fill="#ffffff" d="M 297.851562 460.609375 L 318.101562 460.609375 C 324.402344 460.609375 329.523438 456.09375 329.523438 450.484375 C 329.523438 444.902344 324.402344 440.386719 318.101562 440.386719 L 297.851562 440.386719 C 291.554688 440.386719 286.433594 444.902344 286.433594 450.484375 C 286.433594 456.09375 291.554688 460.609375 297.851562 460.609375 " fill-opacity="1" fill-rule="nonzero"/><path fill="#ffffff" d="M 362.257812 486.378906 C 362.257812 491.53125 358.085938 495.699219 352.9375 495.699219 C 347.789062 495.699219 343.617188 491.53125 343.617188 486.378906 C 343.617188 481.261719 347.789062 477.089844 352.9375 477.089844 C 358.085938 477.089844 362.257812 481.261719 362.257812 486.378906 " fill-opacity="1" fill-rule="nonzero"/><path fill="#ffffff" d="M 476.132812 333.527344 C 487.007812 335.859375 497.679688 328.925781 499.980469 318.050781 C 502.28125 307.207031 495.378906 296.535156 484.503906 294.207031 C 473.660156 291.90625 462.960938 298.808594 460.660156 309.683594 C 458.359375 320.527344 465.261719 331.199219 476.132812 333.527344 " fill-opacity="1" fill-rule="nonzero"/><g clip-path="url(#cedd47ec49)"><path fill="#ffffff" d="M 562.570312 494.980469 L 529.777344 464.921875 L 531.675781 410.386719 C 531.765625 405.925781 531.21875 401.640625 530.902344 400.664062 C 530.527344 397.585938 529.460938 393.703125 528.773438 391.632812 L 514.996094 349.953125 C 512.003906 342.386719 504.957031 336.691406 496.238281 335.972656 C 491.175781 335.511719 484.5625 338.445312 481.253906 341.753906 C 477.773438 344.890625 474.351562 351.792969 476.191406 359.15625 L 481.367188 377.394531 L 444.378906 388.46875 C 438.855469 390.136719 435.691406 395.976562 437.359375 401.527344 C 438.742188 406.042969 442.882812 408.976562 447.398438 408.976562 C 448.40625 408.976562 449.410156 408.832031 450.390625 408.542969 L 487.09375 397.527344 L 491.378906 412.800781 C 491.378906 412.800781 463.707031 432.390625 459.679688 435.210938 C 454.300781 438.976562 450.503906 443.40625 450.273438 451.488281 L 450.390625 505.566406 C 450.390625 520.695312 473.230469 521.042969 473.230469 505.679688 L 473.371094 454.96875 L 503.605469 437.796875 C 503.605469 437.796875 503.632812 468.632812 503.632812 470.558594 C 503.632812 474.617188 507.371094 477.664062 508.578125 478.527344 L 546.117188 512.554688 C 560.152344 523.917969 574.480469 505.308594 562.570312 494.980469 " fill-opacity="1" fill-rule="nonzero"/></g><g clip-path="url(#cb42c42a05)"><path fill="#ffffff" d="M 414.40625 473.582031 L 385.269531 485.574219 C 384.980469 474.328125 378.941406 464.519531 369.992188 458.941406 L 401.722656 434.085938 Z M 352.9375 507.867188 C 341.085938 507.867188 331.449219 498.230469 331.449219 486.378906 C 331.449219 474.53125 341.085938 464.894531 352.9375 464.894531 C 364.789062 464.894531 374.421875 474.53125 374.421875 486.378906 C 374.421875 498.230469 364.789062 507.867188 352.9375 507.867188 Z M 265.175781 507.867188 C 258.933594 507.867188 253.871094 502.804688 253.871094 496.59375 C 253.871094 490.378906 258.933594 485.316406 265.175781 485.316406 C 271.390625 485.316406 276.453125 490.378906 276.453125 496.59375 C 276.453125 502.804688 271.390625 507.867188 265.175781 507.867188 Z M 426.402344 400.894531 L 358.058594 454.453125 C 356.386719 454.195312 354.691406 454.019531 352.9375 454.019531 C 342.207031 454.019531 332.746094 459.285156 326.847656 467.308594 C 326.214844 467.253906 325.609375 467.136719 324.976562 467.136719 L 286.777344 467.136719 C 279.789062 467.136719 273.691406 470.214844 269.75 474.933594 C 268.285156 474.617188 266.730469 474.445312 265.175781 474.445312 C 252.953125 474.445312 243 484.367188 243 496.59375 C 243 508.816406 252.953125 518.769531 265.175781 518.769531 C 273.835938 518.769531 281.285156 513.707031 284.910156 506.429688 C 285.542969 506.515625 286.144531 506.601562 286.777344 506.601562 L 324.976562 506.601562 C 325.839844 506.601562 326.644531 506.429688 327.507812 506.34375 C 333.433594 513.90625 342.609375 518.769531 352.9375 518.769531 C 367.550781 518.769531 379.917969 509.019531 383.945312 495.671875 L 425.335938 478.644531 L 409.140625 428.25 L 433.132812 409.464844 C 435.488281 407.59375 435.921875 404.171875 434.050781 401.8125 C 432.210938 399.457031 428.757812 399.023438 426.402344 400.894531 " fill-opacity="1" fill-rule="nonzero"/></g></svg>