<?xml version="1.0" standalone="no"?>
<!DOCTYPE svg PUBLIC "-//W3C//DTD SVG 20010904//EN"
 "http://www.w3.org/TR/2001/REC-SVG-20010904/DTD/svg10.dtd">
<svg version="1.0" xmlns="http://www.w3.org/2000/svg"
 width="213.000000pt" height="213.000000pt" viewBox="0 0 213.000000 213.000000"
 preserveAspectRatio="xMidYMid meet">
<metadata>
Created by potrace 1.14, written by Peter Selinger 2001-2017
</metadata>
<g transform="translate(0.000000,213.000000) scale(0.100000,-0.100000)"
fill="#000000" stroke="none">
<path d="M885 2098 c-27 -5 -57 -11 -65 -15 -8 -3 -23 -8 -32 -9 -87 -17 -249
-95 -344 -164 -55 -41 -166 -147 -207 -199 -93 -117 -177 -301 -203 -446 -3
-16 -9 -48 -13 -70 -4 -22 -6 -92 -4 -155 5 -139 6 -150 13 -150 3 0 6 -10 7
-22 2 -29 10 -73 12 -73 2 0 4 -7 6 -15 14 -64 98 -253 125 -280 3 -3 19 -25
35 -49 78 -116 244 -255 388 -325 159 -77 265 -100 472 -100 157 0 241 13 346
52 13 6 27 10 31 11 4 1 47 22 95 46 274 139 466 381 545 688 17 66 21 112 22
237 0 85 -3 171 -7 190 -24 114 -72 244 -114 312 -13 21 -23 40 -23 43 0 9
-73 108 -110 150 -132 148 -324 267 -520 321 -80 22 -120 26 -250 28 -85 2
-177 -1 -205 -6z"/>
</g>
</svg>
